<mxfile host="app.diagrams.net" agent="Mozilla/5.0 (Macintosh; Intel Mac OS X 10_15_7) AppleWebKit/605.1.15 (KHTML, like Gecko) Version/18.6 Safari/605.1.15" version="28.2.4">
  <diagram name="Page-1" id="drpmJHVp-P6JaWjKIPAN">
    <mxGraphModel dx="1394" dy="960" grid="1" gridSize="10" guides="1" tooltips="1" connect="1" arrows="1" fold="1" page="1" pageScale="1" pageWidth="15000" pageHeight="5000" math="0" shadow="0">
      <root>
        <mxCell id="0" />
        <mxCell id="1" parent="0" />
        <mxCell id="t9Z27yL7B0CuivdoIb6--2" value="&lt;font style=&quot;font-size: 48px;&quot;&gt;User Flowchart&lt;/font&gt;" style="text;strokeColor=none;align=center;fillColor=none;html=1;verticalAlign=middle;whiteSpace=wrap;rounded=0;labelBackgroundColor=none;fontColor=#E4FDE1;" parent="1" vertex="1">
          <mxGeometry x="1191" y="80" width="390" height="30" as="geometry" />
        </mxCell>
        <mxCell id="t9Z27yL7B0CuivdoIb6--4" style="edgeStyle=orthogonalEdgeStyle;rounded=0;orthogonalLoop=1;jettySize=auto;html=1;strokeWidth=3;endArrow=block;endFill=0;strokeColor=#028090;labelBackgroundColor=none;fontColor=default;" parent="1" source="t9Z27yL7B0CuivdoIb6--3" target="t9Z27yL7B0CuivdoIb6--5" edge="1">
          <mxGeometry relative="1" as="geometry">
            <mxPoint x="2021" y="270" as="targetPoint" />
          </mxGeometry>
        </mxCell>
        <mxCell id="t9Z27yL7B0CuivdoIb6--3" value="User masuk ke&lt;div&gt;web LW - Gym&amp;nbsp;&lt;/div&gt;&lt;div&gt;membership &amp;amp; management&lt;/div&gt;" style="ellipse;whiteSpace=wrap;html=1;labelBackgroundColor=none;fillColor=#F45B69;strokeColor=#028090;fontColor=#E4FDE1;" parent="1" vertex="1">
          <mxGeometry x="1951" y="70" width="140" height="100" as="geometry" />
        </mxCell>
        <mxCell id="t9Z27yL7B0CuivdoIb6--6" style="edgeStyle=orthogonalEdgeStyle;rounded=0;orthogonalLoop=1;jettySize=auto;html=1;strokeWidth=3;endArrow=block;endFill=0;strokeColor=#028090;labelBackgroundColor=none;fontColor=default;" parent="1" source="t9Z27yL7B0CuivdoIb6--7" edge="1">
          <mxGeometry relative="1" as="geometry">
            <mxPoint x="1821" y="350" as="targetPoint" />
          </mxGeometry>
        </mxCell>
        <mxCell id="t9Z27yL7B0CuivdoIb6--10" style="edgeStyle=orthogonalEdgeStyle;rounded=0;orthogonalLoop=1;jettySize=auto;html=1;labelBackgroundColor=none;strokeColor=#028090;fontColor=default;" parent="1" source="t9Z27yL7B0CuivdoIb6--11" edge="1">
          <mxGeometry relative="1" as="geometry">
            <mxPoint x="2231" y="360" as="targetPoint" />
            <Array as="points">
              <mxPoint x="2231" y="280" />
              <mxPoint x="2231" y="360" />
            </Array>
          </mxGeometry>
        </mxCell>
        <mxCell id="t9Z27yL7B0CuivdoIb6--5" value="Apa user baru atau lama?" style="rhombus;whiteSpace=wrap;html=1;labelBackgroundColor=none;fillColor=#F45B69;strokeColor=#028090;fontColor=#E4FDE1;" parent="1" vertex="1">
          <mxGeometry x="1971" y="230" width="100" height="100" as="geometry" />
        </mxCell>
        <mxCell id="t9Z27yL7B0CuivdoIb6--9" value="" style="edgeStyle=orthogonalEdgeStyle;rounded=0;orthogonalLoop=1;jettySize=auto;html=1;shape=wire;dashed=1;strokeWidth=3;endArrow=block;endFill=0;strokeColor=#028090;labelBackgroundColor=none;fontColor=default;" parent="1" source="t9Z27yL7B0CuivdoIb6--5" target="t9Z27yL7B0CuivdoIb6--7" edge="1">
          <mxGeometry relative="1" as="geometry">
            <mxPoint x="1821" y="350" as="targetPoint" />
            <mxPoint x="1971" y="280" as="sourcePoint" />
          </mxGeometry>
        </mxCell>
        <mxCell id="t9Z27yL7B0CuivdoIb6--7" value="user baru" style="text;strokeColor=none;align=center;fillColor=none;html=1;verticalAlign=middle;whiteSpace=wrap;rounded=0;labelBackgroundColor=none;fontColor=#E4FDE1;" parent="1" vertex="1">
          <mxGeometry x="1871" y="265" width="60" height="30" as="geometry" />
        </mxCell>
        <mxCell id="t9Z27yL7B0CuivdoIb6--12" value="" style="edgeStyle=orthogonalEdgeStyle;rounded=0;orthogonalLoop=1;jettySize=auto;html=1;labelBackgroundColor=none;strokeColor=#028090;fontColor=default;" parent="1" source="t9Z27yL7B0CuivdoIb6--5" target="t9Z27yL7B0CuivdoIb6--11" edge="1">
          <mxGeometry relative="1" as="geometry">
            <mxPoint x="2271" y="360" as="targetPoint" />
            <mxPoint x="2071" y="280" as="sourcePoint" />
          </mxGeometry>
        </mxCell>
        <mxCell id="t9Z27yL7B0CuivdoIb6--11" value="user lama" style="text;strokeColor=none;align=center;fillColor=none;html=1;verticalAlign=middle;whiteSpace=wrap;rounded=0;labelBackgroundColor=none;fontColor=#E4FDE1;" parent="1" vertex="1">
          <mxGeometry x="2111" y="265" width="60" height="30" as="geometry" />
        </mxCell>
        <mxCell id="-eBJPtM6E6dJmvuGiEqn-5" style="edgeStyle=orthogonalEdgeStyle;rounded=0;orthogonalLoop=1;jettySize=auto;html=1;endArrow=block;endFill=0;strokeWidth=3;strokeColor=#028090;labelBackgroundColor=none;fontColor=default;" parent="1" source="-eBJPtM6E6dJmvuGiEqn-2" target="-eBJPtM6E6dJmvuGiEqn-6" edge="1">
          <mxGeometry relative="1" as="geometry">
            <mxPoint x="1581" y="380" as="targetPoint" />
          </mxGeometry>
        </mxCell>
        <mxCell id="-eBJPtM6E6dJmvuGiEqn-2" value="&lt;font style=&quot;font-size: 14px;&quot;&gt;Registrasi&lt;/font&gt;" style="verticalLabelPosition=bottom;verticalAlign=top;html=1;shape=process;whiteSpace=wrap;rounded=1;size=0.14;arcSize=6;labelBackgroundColor=none;fillColor=#F45B69;strokeColor=#028090;fontColor=#E4FDE1;" parent="1" vertex="1">
          <mxGeometry x="1771" y="350" width="100" height="60" as="geometry" />
        </mxCell>
        <mxCell id="-eBJPtM6E6dJmvuGiEqn-12" style="edgeStyle=orthogonalEdgeStyle;rounded=0;orthogonalLoop=1;jettySize=auto;html=1;entryX=1;entryY=0.75;entryDx=0;entryDy=0;strokeWidth=3;endArrow=block;endFill=0;strokeColor=#028090;labelBackgroundColor=none;fontColor=default;" parent="1" source="-eBJPtM6E6dJmvuGiEqn-6" target="-eBJPtM6E6dJmvuGiEqn-11" edge="1">
          <mxGeometry relative="1" as="geometry">
            <mxPoint x="1581" y="570" as="targetPoint" />
            <Array as="points">
              <mxPoint x="1581" y="563" />
              <mxPoint x="1551" y="563" />
            </Array>
          </mxGeometry>
        </mxCell>
        <mxCell id="-eBJPtM6E6dJmvuGiEqn-14" style="edgeStyle=orthogonalEdgeStyle;rounded=0;orthogonalLoop=1;jettySize=auto;html=1;entryX=0;entryY=0.75;entryDx=0;entryDy=0;strokeWidth=3;endArrow=block;endFill=0;strokeColor=#028090;labelBackgroundColor=none;fontColor=default;" parent="1" source="-eBJPtM6E6dJmvuGiEqn-6" target="-eBJPtM6E6dJmvuGiEqn-13" edge="1">
          <mxGeometry relative="1" as="geometry">
            <mxPoint x="1581" y="570" as="targetPoint" />
            <Array as="points">
              <mxPoint x="1581" y="563" />
            </Array>
          </mxGeometry>
        </mxCell>
        <mxCell id="-eBJPtM6E6dJmvuGiEqn-6" value="Metode" style="rhombus;whiteSpace=wrap;html=1;labelBackgroundColor=none;fillColor=#F45B69;strokeColor=#028090;fontColor=#E4FDE1;" parent="1" vertex="1">
          <mxGeometry x="1541" y="340" width="80" height="80" as="geometry" />
        </mxCell>
        <mxCell id="-eBJPtM6E6dJmvuGiEqn-11" value="Google Passwordless Sign Up" style="text;strokeColor=none;align=center;fillColor=none;html=1;verticalAlign=middle;whiteSpace=wrap;rounded=0;labelBackgroundColor=none;fontColor=#E4FDE1;" parent="1" vertex="1">
          <mxGeometry x="1391" y="540" width="60" height="30" as="geometry" />
        </mxCell>
        <mxCell id="1otA97b6rouetKLOiXak-4" style="edgeStyle=orthogonalEdgeStyle;rounded=0;orthogonalLoop=1;jettySize=auto;html=1;strokeWidth=3;endArrow=block;endFill=0;strokeColor=#028090;labelBackgroundColor=none;fontColor=default;" edge="1" parent="1" source="-eBJPtM6E6dJmvuGiEqn-13" target="1otA97b6rouetKLOiXak-1">
          <mxGeometry relative="1" as="geometry" />
        </mxCell>
        <mxCell id="-eBJPtM6E6dJmvuGiEqn-13" value="Credentials Registration&amp;nbsp;" style="text;strokeColor=none;align=center;fillColor=none;html=1;verticalAlign=middle;whiteSpace=wrap;rounded=0;strokeWidth=1;glass=0;labelBackgroundColor=none;fontColor=#E4FDE1;" parent="1" vertex="1">
          <mxGeometry x="1631" y="540" width="60" height="30" as="geometry" />
        </mxCell>
        <mxCell id="1otA97b6rouetKLOiXak-5" style="edgeStyle=orthogonalEdgeStyle;rounded=0;orthogonalLoop=1;jettySize=auto;html=1;endArrow=block;endFill=0;strokeWidth=3;strokeColor=#028090;labelBackgroundColor=none;fontColor=default;" edge="1" parent="1" source="1otA97b6rouetKLOiXak-1" target="1otA97b6rouetKLOiXak-6">
          <mxGeometry relative="1" as="geometry">
            <mxPoint x="1661" y="840" as="targetPoint" />
          </mxGeometry>
        </mxCell>
        <mxCell id="1otA97b6rouetKLOiXak-65" style="edgeStyle=orthogonalEdgeStyle;rounded=0;orthogonalLoop=1;jettySize=auto;html=1;strokeColor=#028090;fontColor=#E4FDE1;fillColor=#F45B69;strokeWidth=2;endArrow=diamondThin;endFill=1;" edge="1" parent="1" source="1otA97b6rouetKLOiXak-1">
          <mxGeometry relative="1" as="geometry">
            <mxPoint x="1770" y="715" as="targetPoint" />
          </mxGeometry>
        </mxCell>
        <mxCell id="1otA97b6rouetKLOiXak-1" value="&lt;div style=&quot;&quot;&gt;&lt;br&gt;&lt;/div&gt;&lt;div style=&quot;&quot;&gt;User input name, email, password&lt;/div&gt;" style="shape=manualInput;whiteSpace=wrap;html=1;align=center;labelBackgroundColor=none;fillColor=#F45B69;strokeColor=#028090;fontColor=#E4FDE1;" vertex="1" parent="1">
          <mxGeometry x="1606" y="670" width="110" height="90" as="geometry" />
        </mxCell>
        <mxCell id="1otA97b6rouetKLOiXak-20" style="edgeStyle=orthogonalEdgeStyle;rounded=0;orthogonalLoop=1;jettySize=auto;html=1;entryX=0.502;entryY=0.083;entryDx=0;entryDy=0;entryPerimeter=0;strokeWidth=3;endArrow=block;endFill=0;strokeColor=#028090;labelBackgroundColor=none;fontColor=default;" edge="1" parent="1" source="1otA97b6rouetKLOiXak-6" target="1otA97b6rouetKLOiXak-17">
          <mxGeometry relative="1" as="geometry">
            <mxPoint x="1661" y="940" as="targetPoint" />
          </mxGeometry>
        </mxCell>
        <mxCell id="1otA97b6rouetKLOiXak-26" style="edgeStyle=orthogonalEdgeStyle;rounded=0;orthogonalLoop=1;jettySize=auto;html=1;entryX=1;entryY=0.5;entryDx=0;entryDy=0;strokeColor=#028090;strokeWidth=2;labelBackgroundColor=none;fontColor=default;endArrow=cross;endFill=0;" edge="1" parent="1" source="1otA97b6rouetKLOiXak-6" target="1otA97b6rouetKLOiXak-10">
          <mxGeometry relative="1" as="geometry" />
        </mxCell>
        <mxCell id="1otA97b6rouetKLOiXak-6" value="format input" style="rhombus;whiteSpace=wrap;html=1;labelBackgroundColor=none;fillColor=#F45B69;strokeColor=#028090;fontColor=#E4FDE1;" vertex="1" parent="1">
          <mxGeometry x="1621" y="800" width="80" height="80" as="geometry" />
        </mxCell>
        <mxCell id="1otA97b6rouetKLOiXak-13" style="edgeStyle=orthogonalEdgeStyle;rounded=0;orthogonalLoop=1;jettySize=auto;html=1;strokeColor=#028090;strokeWidth=2;labelBackgroundColor=none;fontColor=default;endArrow=cross;endFill=0;" edge="1" parent="1" source="1otA97b6rouetKLOiXak-10">
          <mxGeometry relative="1" as="geometry">
            <mxPoint x="1496" y="960" as="targetPoint" />
          </mxGeometry>
        </mxCell>
        <mxCell id="1otA97b6rouetKLOiXak-10" value="format seluruh atau salah satu input salah" style="text;strokeColor=none;align=center;fillColor=none;html=1;verticalAlign=middle;whiteSpace=wrap;rounded=0;labelBackgroundColor=none;fontColor=#E4FDE1;" vertex="1" parent="1">
          <mxGeometry x="1431" y="825" width="130" height="30" as="geometry" />
        </mxCell>
        <mxCell id="1otA97b6rouetKLOiXak-15" style="edgeStyle=orthogonalEdgeStyle;rounded=0;orthogonalLoop=1;jettySize=auto;html=1;dashed=1;dashPattern=8 4 1 4;strokeWidth=2;labelBackgroundColor=none;strokeColor=#028090;fontColor=default;" edge="1" parent="1" source="1otA97b6rouetKLOiXak-14">
          <mxGeometry relative="1" as="geometry">
            <mxPoint x="1601" y="720" as="targetPoint" />
            <Array as="points">
              <mxPoint x="1391" y="1000" />
              <mxPoint x="1391" y="720" />
            </Array>
          </mxGeometry>
        </mxCell>
        <mxCell id="1otA97b6rouetKLOiXak-14" value="Respon&amp;nbsp;&lt;div&gt;message&lt;div&gt;format salah&lt;/div&gt;&lt;/div&gt;" style="shape=parallelogram;perimeter=parallelogramPerimeter;whiteSpace=wrap;html=1;fixedSize=1;labelBackgroundColor=none;fillColor=#F45B69;strokeColor=#028090;fontColor=#E4FDE1;" vertex="1" parent="1">
          <mxGeometry x="1431" y="970" width="120" height="60" as="geometry" />
        </mxCell>
        <mxCell id="1otA97b6rouetKLOiXak-24" style="edgeStyle=orthogonalEdgeStyle;rounded=0;orthogonalLoop=1;jettySize=auto;html=1;entryX=0.5;entryY=0;entryDx=0;entryDy=0;strokeWidth=3;endArrow=block;endFill=0;strokeColor=#028090;labelBackgroundColor=none;fontColor=default;" edge="1" parent="1" source="1otA97b6rouetKLOiXak-17" target="1otA97b6rouetKLOiXak-23">
          <mxGeometry relative="1" as="geometry" />
        </mxCell>
        <mxCell id="1otA97b6rouetKLOiXak-17" value="&lt;span style=&quot;caret-color: rgb(255, 255, 255); color: rgb(255, 255, 255); font-family: Helvetica; font-size: 12px; font-style: normal; font-variant-caps: normal; font-weight: 400; letter-spacing: normal; text-align: center; text-indent: 0px; text-transform: none; white-space: normal; word-spacing: 0px; -webkit-text-stroke-width: 0px; background-color: rgb(27, 29, 30); text-decoration: none; float: none; display: inline !important;&quot;&gt;format seluruh input&amp;nbsp;&lt;/span&gt;&lt;div&gt;&lt;span style=&quot;caret-color: rgb(255, 255, 255); color: rgb(255, 255, 255); font-family: Helvetica; font-size: 12px; font-style: normal; font-variant-caps: normal; font-weight: 400; letter-spacing: normal; text-align: center; text-indent: 0px; text-transform: none; white-space: normal; word-spacing: 0px; -webkit-text-stroke-width: 0px; background-color: rgb(27, 29, 30); text-decoration: none; float: none; display: inline !important;&quot;&gt;benar&lt;/span&gt;&lt;/div&gt;" style="text;whiteSpace=wrap;html=1;labelBackgroundColor=none;fontColor=#E4FDE1;" vertex="1" parent="1">
          <mxGeometry x="1601" y="930" width="120" height="40" as="geometry" />
        </mxCell>
        <mxCell id="1otA97b6rouetKLOiXak-28" value="" style="edgeStyle=orthogonalEdgeStyle;rounded=0;orthogonalLoop=1;jettySize=auto;html=1;strokeColor=#028090;fontColor=#E4FDE1;fillColor=#F45B69;strokeWidth=3;endArrow=block;endFill=0;" edge="1" parent="1" source="1otA97b6rouetKLOiXak-23" target="1otA97b6rouetKLOiXak-27">
          <mxGeometry relative="1" as="geometry" />
        </mxCell>
        <mxCell id="1otA97b6rouetKLOiXak-23" value="Server proses&amp;nbsp;&lt;div&gt;payload&lt;/div&gt;" style="rounded=0;whiteSpace=wrap;html=1;labelBackgroundColor=none;fillColor=#F45B69;strokeColor=#028090;fontColor=#E4FDE1;" vertex="1" parent="1">
          <mxGeometry x="1601" y="1020" width="120" height="60" as="geometry" />
        </mxCell>
        <mxCell id="1otA97b6rouetKLOiXak-30" style="edgeStyle=orthogonalEdgeStyle;rounded=0;orthogonalLoop=1;jettySize=auto;html=1;entryX=1;entryY=0.5;entryDx=0;entryDy=0;strokeColor=#028090;fontColor=#E4FDE1;fillColor=#F45B69;strokeWidth=2;endArrow=cross;endFill=0;" edge="1" parent="1" source="1otA97b6rouetKLOiXak-27" target="1otA97b6rouetKLOiXak-29">
          <mxGeometry relative="1" as="geometry" />
        </mxCell>
        <mxCell id="1otA97b6rouetKLOiXak-27" value="Hasil proses" style="rhombus;whiteSpace=wrap;html=1;fillColor=#F45B69;strokeColor=#028090;fontColor=#E4FDE1;rounded=0;labelBackgroundColor=none;" vertex="1" parent="1">
          <mxGeometry x="1621" y="1150" width="80" height="80" as="geometry" />
        </mxCell>
        <mxCell id="1otA97b6rouetKLOiXak-29" value="email sudah terdaftar" style="text;strokeColor=none;fillColor=none;align=center;verticalAlign=middle;spacingLeft=4;spacingRight=4;overflow=hidden;points=[[0,0.5],[1,0.5]];portConstraint=eastwest;rotatable=0;whiteSpace=wrap;html=1;fontColor=#E4FDE1;" vertex="1" parent="1">
          <mxGeometry x="1456" y="1175" width="80" height="30" as="geometry" />
        </mxCell>
        <mxCell id="1otA97b6rouetKLOiXak-31" value="Respon&amp;nbsp;&lt;div&gt;message email&amp;nbsp;&lt;/div&gt;&lt;div&gt;sudah&lt;div&gt;terdaftar 409&lt;/div&gt;&lt;/div&gt;" style="shape=parallelogram;perimeter=parallelogramPerimeter;whiteSpace=wrap;html=1;fixedSize=1;labelBackgroundColor=none;fillColor=#F45B69;strokeColor=#028090;fontColor=#E4FDE1;" vertex="1" parent="1">
          <mxGeometry x="1431" y="1350" width="120" height="60" as="geometry" />
        </mxCell>
        <mxCell id="1otA97b6rouetKLOiXak-32" style="edgeStyle=orthogonalEdgeStyle;rounded=0;orthogonalLoop=1;jettySize=auto;html=1;strokeColor=#028090;fontColor=#E4FDE1;fillColor=#F45B69;strokeWidth=2;endArrow=cross;endFill=0;" edge="1" parent="1">
          <mxGeometry relative="1" as="geometry">
            <mxPoint x="1497.8600000000001" y="1207.52" as="sourcePoint" />
            <mxPoint x="1498" y="1340" as="targetPoint" />
            <Array as="points">
              <mxPoint x="1497.8600000000001" y="1242.52" />
              <mxPoint x="1497.8600000000001" y="1242.52" />
            </Array>
          </mxGeometry>
        </mxCell>
        <mxCell id="1otA97b6rouetKLOiXak-33" style="edgeStyle=orthogonalEdgeStyle;rounded=0;orthogonalLoop=1;jettySize=auto;html=1;dashed=1;dashPattern=8 4 1 4;strokeWidth=2;labelBackgroundColor=none;strokeColor=#028090;fontColor=default;endArrow=none;endFill=0;exitX=0;exitY=0.5;exitDx=0;exitDy=0;" edge="1" parent="1" source="1otA97b6rouetKLOiXak-31">
          <mxGeometry relative="1" as="geometry">
            <mxPoint x="1391" y="1000" as="targetPoint" />
            <mxPoint x="1391" y="1360" as="sourcePoint" />
            <Array as="points">
              <mxPoint x="1391" y="1380" />
            </Array>
          </mxGeometry>
        </mxCell>
        <mxCell id="1otA97b6rouetKLOiXak-34" value="" style="edgeStyle=orthogonalEdgeStyle;rounded=0;orthogonalLoop=1;jettySize=auto;html=1;strokeColor=#028090;fontColor=#E4FDE1;fillColor=#F45B69;strokeWidth=3;endArrow=block;endFill=0;" edge="1" parent="1">
          <mxGeometry relative="1" as="geometry">
            <mxPoint x="1660.6599999999999" y="1230" as="sourcePoint" />
            <mxPoint x="1660.6599999999999" y="1300" as="targetPoint" />
          </mxGeometry>
        </mxCell>
        <mxCell id="1otA97b6rouetKLOiXak-35" value="&lt;span style=&quot;caret-color: rgb(245, 224, 248); color: rgb(245, 224, 248); font-family: Helvetica; font-size: 12px; font-style: normal; font-variant-caps: normal; font-weight: 400; letter-spacing: normal; text-indent: 0px; text-transform: none; white-space: normal; word-spacing: 0px; -webkit-text-stroke-width: 0px; background-color: rgb(27, 29, 30); text-decoration: none; float: none; display: inline !important;&quot;&gt;email belum&amp;nbsp;&lt;/span&gt;&lt;div&gt;&lt;span style=&quot;caret-color: rgb(245, 224, 248); color: rgb(245, 224, 248); font-family: Helvetica; font-size: 12px; font-style: normal; font-variant-caps: normal; font-weight: 400; letter-spacing: normal; text-indent: 0px; text-transform: none; white-space: normal; word-spacing: 0px; -webkit-text-stroke-width: 0px; background-color: rgb(27, 29, 30); text-decoration: none; float: none; display: inline !important;&quot;&gt;terdaftar&lt;/span&gt;&lt;/div&gt;" style="text;whiteSpace=wrap;html=1;fontColor=#E4FDE1;align=center;" vertex="1" parent="1">
          <mxGeometry x="1616.5" y="1300" width="89" height="40" as="geometry" />
        </mxCell>
        <mxCell id="1otA97b6rouetKLOiXak-36" value="" style="edgeStyle=orthogonalEdgeStyle;rounded=0;orthogonalLoop=1;jettySize=auto;html=1;strokeColor=#028090;fontColor=#E4FDE1;fillColor=#F45B69;strokeWidth=3;endArrow=block;endFill=0;" edge="1" parent="1">
          <mxGeometry relative="1" as="geometry">
            <mxPoint x="1660.6599999999999" y="1340" as="sourcePoint" />
            <mxPoint x="1660.6599999999999" y="1410" as="targetPoint" />
          </mxGeometry>
        </mxCell>
        <mxCell id="1otA97b6rouetKLOiXak-39" style="edgeStyle=orthogonalEdgeStyle;rounded=0;orthogonalLoop=1;jettySize=auto;html=1;strokeColor=#028090;fontColor=#E4FDE1;fillColor=#F45B69;dashed=1;dashPattern=1 4;endArrow=oval;endFill=0;" edge="1" parent="1" source="1otA97b6rouetKLOiXak-37">
          <mxGeometry relative="1" as="geometry">
            <mxPoint x="640" y="1440" as="targetPoint" />
          </mxGeometry>
        </mxCell>
        <mxCell id="1otA97b6rouetKLOiXak-51" value="" style="edgeStyle=orthogonalEdgeStyle;rounded=0;orthogonalLoop=1;jettySize=auto;html=1;strokeColor=#028090;fontColor=#E4FDE1;fillColor=#F45B69;strokeWidth=3;endArrow=block;endFill=0;" edge="1" parent="1" source="1otA97b6rouetKLOiXak-37" target="1otA97b6rouetKLOiXak-50">
          <mxGeometry relative="1" as="geometry" />
        </mxCell>
        <mxCell id="1otA97b6rouetKLOiXak-37" value="Server proses&amp;nbsp;&lt;div&gt;pembuatan akun&lt;/div&gt;" style="rounded=0;whiteSpace=wrap;html=1;strokeColor=#028090;fontColor=#E4FDE1;fillColor=#F45B69;" vertex="1" parent="1">
          <mxGeometry x="1601" y="1410" width="120" height="60" as="geometry" />
        </mxCell>
        <mxCell id="1otA97b6rouetKLOiXak-44" value="" style="edgeStyle=orthogonalEdgeStyle;rounded=0;orthogonalLoop=1;jettySize=auto;html=1;strokeColor=#028090;fontColor=#E4FDE1;fillColor=#F45B69;" edge="1" parent="1" source="1otA97b6rouetKLOiXak-40" target="1otA97b6rouetKLOiXak-43">
          <mxGeometry relative="1" as="geometry" />
        </mxCell>
        <mxCell id="1otA97b6rouetKLOiXak-40" value="Server membuat akun user di database" style="rounded=0;whiteSpace=wrap;html=1;strokeColor=#028090;fontColor=#E4FDE1;fillColor=#F45B69;" vertex="1" parent="1">
          <mxGeometry x="510" y="1410" width="120" height="60" as="geometry" />
        </mxCell>
        <mxCell id="1otA97b6rouetKLOiXak-46" value="" style="edgeStyle=orthogonalEdgeStyle;rounded=0;orthogonalLoop=1;jettySize=auto;html=1;strokeColor=#028090;fontColor=#E4FDE1;fillColor=#F45B69;" edge="1" parent="1" source="1otA97b6rouetKLOiXak-43" target="1otA97b6rouetKLOiXak-45">
          <mxGeometry relative="1" as="geometry" />
        </mxCell>
        <mxCell id="1otA97b6rouetKLOiXak-43" value="Server memasukan kode OTP verifikasi ke tabel user" style="rounded=0;whiteSpace=wrap;html=1;strokeColor=#028090;fontColor=#E4FDE1;fillColor=#F45B69;" vertex="1" parent="1">
          <mxGeometry x="510" y="1550" width="120" height="60" as="geometry" />
        </mxCell>
        <mxCell id="1otA97b6rouetKLOiXak-48" value="" style="edgeStyle=orthogonalEdgeStyle;rounded=0;orthogonalLoop=1;jettySize=auto;html=1;strokeColor=#028090;fontColor=#E4FDE1;fillColor=#F45B69;" edge="1" parent="1" source="1otA97b6rouetKLOiXak-45" target="1otA97b6rouetKLOiXak-47">
          <mxGeometry relative="1" as="geometry" />
        </mxCell>
        <mxCell id="1otA97b6rouetKLOiXak-45" value="Server membuat cookie verifikasi&amp;nbsp;&lt;div&gt;email dan email verfikasi&lt;/div&gt;" style="rounded=0;whiteSpace=wrap;html=1;strokeColor=#028090;fontColor=#E4FDE1;fillColor=#F45B69;" vertex="1" parent="1">
          <mxGeometry x="510" y="1690" width="120" height="60" as="geometry" />
        </mxCell>
        <mxCell id="1otA97b6rouetKLOiXak-49" style="edgeStyle=orthogonalEdgeStyle;rounded=0;orthogonalLoop=1;jettySize=auto;html=1;strokeColor=#028090;fontColor=#E4FDE1;fillColor=#F45B69;dashed=1;strokeWidth=1;dashPattern=1 4;endArrow=oval;endFill=0;" edge="1" parent="1" source="1otA97b6rouetKLOiXak-47">
          <mxGeometry relative="1" as="geometry">
            <mxPoint x="1590" y="1450" as="targetPoint" />
            <Array as="points">
              <mxPoint x="680" y="1860" />
              <mxPoint x="680" y="1450" />
            </Array>
          </mxGeometry>
        </mxCell>
        <mxCell id="1otA97b6rouetKLOiXak-47" value="Server mengirim cookie verifikasi ke storage client &amp;amp; email verifikasi ke alamat email user" style="rounded=0;whiteSpace=wrap;html=1;strokeColor=#028090;fontColor=#E4FDE1;fillColor=#F45B69;" vertex="1" parent="1">
          <mxGeometry x="505" y="1830" width="130" height="70" as="geometry" />
        </mxCell>
        <mxCell id="1otA97b6rouetKLOiXak-52" style="edgeStyle=orthogonalEdgeStyle;rounded=0;orthogonalLoop=1;jettySize=auto;html=1;strokeColor=#028090;fontColor=#E4FDE1;fillColor=#F45B69;strokeWidth=2;endArrow=cross;endFill=0;" edge="1" parent="1" source="1otA97b6rouetKLOiXak-50">
          <mxGeometry relative="1" as="geometry">
            <mxPoint x="1540" y="1580" as="targetPoint" />
          </mxGeometry>
        </mxCell>
        <mxCell id="1otA97b6rouetKLOiXak-50" value="Status&amp;nbsp;&lt;div&gt;pembuatan&lt;/div&gt;" style="rhombus;whiteSpace=wrap;html=1;fillColor=#F45B69;strokeColor=#028090;fontColor=#E4FDE1;rounded=0;" vertex="1" parent="1">
          <mxGeometry x="1621" y="1540" width="80" height="80" as="geometry" />
        </mxCell>
        <mxCell id="1otA97b6rouetKLOiXak-53" value="akun gagal dibuat" style="text;whiteSpace=wrap;html=1;fontColor=#E4FDE1;" vertex="1" parent="1">
          <mxGeometry x="1441" y="1565" width="100" height="30" as="geometry" />
        </mxCell>
        <mxCell id="1otA97b6rouetKLOiXak-54" value="Respon internal server error&lt;div&gt;500&lt;/div&gt;" style="shape=parallelogram;perimeter=parallelogramPerimeter;whiteSpace=wrap;html=1;fixedSize=1;labelBackgroundColor=none;fillColor=#F45B69;strokeColor=#028090;fontColor=#E4FDE1;" vertex="1" parent="1">
          <mxGeometry x="1421" y="1700" width="120" height="60" as="geometry" />
        </mxCell>
        <mxCell id="1otA97b6rouetKLOiXak-55" style="edgeStyle=orthogonalEdgeStyle;rounded=0;orthogonalLoop=1;jettySize=auto;html=1;strokeColor=#028090;fontColor=#E4FDE1;fillColor=#F45B69;strokeWidth=2;endArrow=cross;endFill=0;exitX=0.5;exitY=1;exitDx=0;exitDy=0;entryX=0.583;entryY=0;entryDx=0;entryDy=0;entryPerimeter=0;" edge="1" parent="1" source="1otA97b6rouetKLOiXak-53" target="1otA97b6rouetKLOiXak-54">
          <mxGeometry relative="1" as="geometry">
            <mxPoint x="1491" y="1690" as="targetPoint" />
            <mxPoint x="1541" y="1670" as="sourcePoint" />
          </mxGeometry>
        </mxCell>
        <mxCell id="1otA97b6rouetKLOiXak-56" style="edgeStyle=orthogonalEdgeStyle;rounded=0;orthogonalLoop=1;jettySize=auto;html=1;dashed=1;dashPattern=8 4 1 4;strokeWidth=2;labelBackgroundColor=none;strokeColor=#028090;fontColor=default;endArrow=none;endFill=0;" edge="1" parent="1">
          <mxGeometry relative="1" as="geometry">
            <mxPoint x="1391" y="1350" as="targetPoint" />
            <mxPoint x="1430" y="1730" as="sourcePoint" />
            <Array as="points">
              <mxPoint x="1391" y="1730" />
            </Array>
          </mxGeometry>
        </mxCell>
        <mxCell id="1otA97b6rouetKLOiXak-59" value="" style="edgeStyle=orthogonalEdgeStyle;rounded=0;orthogonalLoop=1;jettySize=auto;html=1;strokeColor=#028090;fontColor=#E4FDE1;fillColor=#F45B69;strokeWidth=3;endArrow=block;endFill=0;entryX=0.5;entryY=0;entryDx=0;entryDy=0;" edge="1" parent="1" target="1otA97b6rouetKLOiXak-61">
          <mxGeometry relative="1" as="geometry">
            <mxPoint x="1660.6" y="1620" as="sourcePoint" />
            <mxPoint x="1661" y="1690" as="targetPoint" />
          </mxGeometry>
        </mxCell>
        <mxCell id="1otA97b6rouetKLOiXak-64" style="edgeStyle=orthogonalEdgeStyle;rounded=0;orthogonalLoop=1;jettySize=auto;html=1;entryX=0.5;entryY=0;entryDx=0;entryDy=0;strokeColor=#028090;fontColor=#E4FDE1;fillColor=#F45B69;strokeWidth=3;endArrow=block;endFill=0;" edge="1" parent="1" source="1otA97b6rouetKLOiXak-61" target="1otA97b6rouetKLOiXak-62">
          <mxGeometry relative="1" as="geometry" />
        </mxCell>
        <mxCell id="1otA97b6rouetKLOiXak-61" value="Akun berhasil dibuat&amp;nbsp;&lt;div&gt;200 &amp;amp;&lt;/div&gt;&lt;div&gt;client menerima cookie&lt;/div&gt;&lt;div&gt;verifikasi&lt;/div&gt;" style="shape=parallelogram;perimeter=parallelogramPerimeter;whiteSpace=wrap;html=1;fixedSize=1;strokeColor=#028090;fontColor=#E4FDE1;fillColor=#F45B69;" vertex="1" parent="1">
          <mxGeometry x="1579" y="1720" width="164" height="90" as="geometry" />
        </mxCell>
        <mxCell id="1otA97b6rouetKLOiXak-62" value="&lt;font style=&quot;font-size: 14px;&quot;&gt;Verifikasi Email&lt;/font&gt;" style="verticalLabelPosition=bottom;verticalAlign=top;html=1;shape=process;whiteSpace=wrap;rounded=1;size=0.14;arcSize=6;labelBackgroundColor=none;fillColor=#F45B69;strokeColor=#028090;fontColor=#E4FDE1;" vertex="1" parent="1">
          <mxGeometry x="1611" y="1920" width="100" height="60" as="geometry" />
        </mxCell>
        <mxCell id="1otA97b6rouetKLOiXak-68" style="edgeStyle=orthogonalEdgeStyle;rounded=0;orthogonalLoop=1;jettySize=auto;html=1;strokeColor=#028090;fontColor=#E4FDE1;fillColor=#F45B69;strokeWidth=2;endArrow=diamondThin;endFill=1;" edge="1" parent="1" source="1otA97b6rouetKLOiXak-66">
          <mxGeometry relative="1" as="geometry">
            <mxPoint x="1850" y="860" as="targetPoint" />
            <Array as="points">
              <mxPoint x="1830" y="860" />
            </Array>
          </mxGeometry>
        </mxCell>
        <mxCell id="1otA97b6rouetKLOiXak-66" value="user melakukan spam 5 x 1 menit" style="text;strokeColor=none;align=center;fillColor=none;html=1;verticalAlign=middle;whiteSpace=wrap;rounded=0;fontColor=#E4FDE1;" vertex="1" parent="1">
          <mxGeometry x="1780" y="700" width="100" height="30" as="geometry" />
        </mxCell>
        <mxCell id="1otA97b6rouetKLOiXak-69" value="Rate limiting aktif&lt;div&gt;10 menit&lt;/div&gt;&lt;div&gt;429&lt;/div&gt;" style="rounded=0;whiteSpace=wrap;html=1;strokeColor=#028090;fontColor=#E4FDE1;fillColor=#F45B69;" vertex="1" parent="1">
          <mxGeometry x="1851" y="825" width="120" height="60" as="geometry" />
        </mxCell>
        <mxCell id="1otA97b6rouetKLOiXak-70" value="Server daftarkan&amp;nbsp;&lt;div&gt;IP address sebagai&lt;/div&gt;&lt;div&gt;abuser ke kolom&amp;nbsp;&lt;/div&gt;&lt;div&gt;abuser di database&lt;/div&gt;" style="rounded=0;whiteSpace=wrap;html=1;strokeColor=#028090;fontColor=#E4FDE1;fillColor=#F45B69;" vertex="1" parent="1">
          <mxGeometry x="1851" y="910" width="120" height="60" as="geometry" />
        </mxCell>
        <mxCell id="1otA97b6rouetKLOiXak-71" style="edgeStyle=orthogonalEdgeStyle;rounded=0;orthogonalLoop=1;jettySize=auto;html=1;strokeColor=#028090;fontColor=#E4FDE1;fillColor=#F45B69;strokeWidth=2;endArrow=diamondThin;endFill=1;" edge="1" parent="1">
          <mxGeometry relative="1" as="geometry">
            <mxPoint x="1850" y="940" as="targetPoint" />
            <mxPoint x="1830" y="810" as="sourcePoint" />
            <Array as="points">
              <mxPoint x="1830" y="940" />
            </Array>
          </mxGeometry>
        </mxCell>
      </root>
    </mxGraphModel>
  </diagram>
</mxfile>
